<svg xmlns="http://www.w3.org/2000/svg" width="202" height="165" viewBox="0 0 202 165">
    <defs>
        <filter id="mchl1lm85a" width="127.4%" height="135.1%" x="-13.7%" y="-17.6%" filterUnits="objectBoundingBox">
            <feOffset dy="4" in="SourceAlpha" result="shadowOffsetOuter1"/>
            <feGaussianBlur in="shadowOffsetOuter1" result="shadowBlurOuter1" stdDeviation="4"/>
            <feColorMatrix in="shadowBlurOuter1" result="shadowMatrixOuter1" values="0 0 0 0 0 0 0 0 0 0 0 0 0 0 0 0 0 0 0.15 0"/>
            <feMerge>
                <feMergeNode in="shadowMatrixOuter1"/>
                <feMergeNode in="SourceGraphic"/>
            </feMerge>
        </filter>
    </defs>
    <g fill="none" fill-rule="evenodd">
        <g>
            <g filter="url(#mchl1lm85a)" transform="translate(1 -189) translate(16 206)">
                <path fill="#FCE3E3" stroke="#FFF" stroke-width="3" d="M158 1.5c2.347 0 4.472.951 6.01 2.49 1.539 1.538 2.49 3.663 2.49 6.01h0v111c0 2.347-.951 4.472-2.49 6.01-1.538 1.539-3.663 2.49-6.01 2.49h0H10c-2.347 0-4.472-.951-6.01-2.49-1.539-1.538-2.49-3.663-2.49-6.01h0V10c0-2.347.951-4.472 2.49-6.01C5.528 2.45 7.653 1.5 10 1.5h0z"/>
                <g>
                    <path fill="#FFF3F3" d="M26.85 64.535c0 7.356-5.964 13.32-13.322 13.32-7.358 0-13.322-5.964-13.322-13.32 0-7.358 5.964-13.322 13.322-13.322 7.358 0 13.322 5.964 13.322 13.322M52.707 43.426c0 5.529-4.483 10.011-10.012 10.011-5.529 0-10.01-4.482-10.01-10.011 0-5.53 4.481-10.01 10.01-10.01 5.53 0 10.012 4.48 10.012 10.01M136.795 69.153c0 9.075-7.356 16.433-16.433 16.433-9.074 0-16.432-7.358-16.432-16.433 0-9.076 7.358-16.432 16.432-16.432 9.077 0 16.433 7.356 16.433 16.432" transform="translate(14 17)"/>
                    <path fill="#FFF3F3" d="M117.885 55.137c0 4.116-3.336 7.453-7.452 7.453s-7.453-3.337-7.453-7.453 3.337-7.451 7.453-7.451 7.452 3.335 7.452 7.451" transform="translate(14 17)"/>
                    <path fill="#FFF3F3" d="M105.428 47.575c0 4.114-3.337 7.451-7.453 7.451s-7.452-3.337-7.452-7.451c0-4.116 3.336-7.453 7.452-7.453s7.453 3.337 7.453 7.453" transform="translate(14 17)"/>
                    <path fill="#FFF3F3" d="M93.447 47.113c0 2.405-1.95 4.353-4.353 4.353-2.406 0-4.354-1.948-4.354-4.353 0-2.404 1.948-4.354 4.354-4.354 2.403 0 4.353 1.95 4.353 4.354M108.32 49.21c0 1.598-1.295 2.892-2.892 2.892s-2.891-1.294-2.891-2.892c0-1.596 1.294-2.892 2.89-2.892 1.598 0 2.893 1.296 2.893 2.892M30.682 51.578c0 4.116-3.337 7.453-7.452 7.453-4.116 0-7.453-3.337-7.453-7.453 0-4.115 3.337-7.452 7.453-7.452 4.115 0 7.452 3.337 7.452 7.452" transform="translate(14 17)"/>
                    <path fill="#FFF3F3" d="M35.163 47.336c0 2.527-2.049 4.576-4.576 4.576-2.526 0-4.575-2.049-4.575-4.576 0-2.53 2.049-4.578 4.575-4.578 2.527 0 4.576 2.049 4.576 4.578M60.27 42.314c0 3.686-2.987 6.674-6.674 6.674-3.685 0-6.674-2.988-6.674-6.674 0-3.687 2.99-6.673 6.674-6.673 3.687 0 6.673 2.986 6.673 6.673" transform="translate(14 17)"/>
                    <path fill="#FFF3F3" d="M68.278 44.983c0 3.687-2.988 6.675-6.674 6.675-3.685 0-6.673-2.988-6.673-6.675 0-3.686 2.988-6.672 6.673-6.672 3.686 0 6.674 2.986 6.674 6.672" transform="translate(14 17)"/>
                    <path fill="#FFF3F3" d="M89.634 42.314c0 7.126-5.777 12.903-12.902 12.903-7.127 0-12.904-5.777-12.904-12.903s5.777-12.902 12.904-12.902c7.125 0 12.902 5.776 12.902 12.902" transform="translate(14 17)"/>
                    <path fill="#EAC5C5" d="M82.422 75.157c.24.417.357.89.284 1.359-.258 1.676-.406 3.395-.934 5.004-.865 2.638-1.784 4.816-2.968 7.153-1.87 3.702-4.239 8.7-6.708 8.156-1.016-.221-4.69-1.156-3.857-2.05.64-.688 1.284-2.438.987-2.569-.198-.09-2.539 2.412-3.097 2.149-1.249-.593-2.871-1.11-3.895-1.701-.263-.152-.51-.302-.743-.45-.153-.095-.299-.19-.436-.284-1.24-.85-1.816-1.572-1.08-1.927.69-.334 5.195-4.763 5.98-5.614 1.219-1.32 1.765-2.133.88-1.242-1.16 1.167-2.272 1.807-3.376 2.64-2.703 2.036-4.874 4.584-8.124 3.412-1.738-.626-8.153-3.188-6.799-3.93 2.137-1.17 6.81-4.996 6.81-4.996.884-.727 4.68-3.228 5.01-4.375.08-.272-2.596 2.082-3.083 2.37-2.675 1.582-7.656 5.765-10.753 6.198-2.247.317-5.99-2.012-7.22-2.765-.974-.598-.635-.835-.316-1.006 13.808-7.476.685.53-3.197-1.272-1.826-.846-3.071-1.8-3.205-2.701-.14-.95 1.76-.862 4.124-1.387 2.014-.448 3.495-.974 4.291-1.294 3.714-1.5 4.465-1.974 6.03-2.75 3.286-1.627 1.38-.71 3.075-1.639 3.046-1.672 1.19-.802 4.22-2.193 2.123-.976 2.757-1.67 4.726-2.786 1.147-.648 2.758.823 3.819 1.422 2.018 1.147 4.282 1.795 6.41 2.741 2.202.98 4.395 1.989 6.629 2.908.726.299 1.558.308 2.196.853" transform="translate(14 17)"/>
                    <path fill="#845B71" d="M38.885 52.48c-.273 2.769-2.348 4.631-4.646 6.044-.024-.106-.086-.22-.187-.338-3.013-3.511-1.652-8.771 1.804-10.975.106-.071.14-.166.315-.208.471-.112.682.217.985.414 1.9 1.238 1.909 3.186 1.729 5.063M26.841 70.086c-.046.268-.069.987-.07 1.564-.79-.221-3.615-1.373-4.236-1.856-1.783-1.389-1.857-2.625-1.863-4.298-.005-1.02 1.578-3.666 2.115-4.365.092-.12.217-.072.23-.059.129.117 1.072 1.284 1.592 1.729 2.466 2.107 2.72 4.462 2.232 7.285" transform="translate(14 17)"/>
                    <path fill="#D8A8A4" d="M60.54 75.97c4.644-3.485 8.5-7.011 6.578-7.741-2.372-.902-4.165-2.463-4.165-2.463L45.83 77.13l-7.354 3.872s-.774 0 .774.772c1.549.775 4.93 3.082 6.53 2.703 1.599-.38 2.989.32 14.76-8.507M76.754 80.977c3.074-5.183 5.485-10.31 3.729-10.986-2.168-.833-4.004-2.601-4.004-2.601L64.821 84.58l-5.234 6.073s-.642.109.814.894c1.457.783 4.777 3.297 6.016 2.577 1.242-.722 2.549-.011 10.337-13.147" transform="translate(14 17)"/>
                    <path fill="#C38E89" d="M66.62 63.623l2.18-1.526c.397-.278.91-.318 1.346-.109l8.802 4.236c.58.28.957.859.98 1.504l.077 2.32-13.385-6.425z" transform="translate(14 17)"/>
                    <path fill="#EFAC9C" d="M66.62 63.623l.631-.365c.397-.277.911-.319 1.347-.11l10.52 5.08c.581.28.752.904.773 1.549v.386l-13.271-6.54z" transform="translate(14 17)"/>
                    <path fill="#C38E89" d="M106.1 2.917l-28.86 62.38-.061.127c-1.804.404-3.025-.074-3.796-.654-.77-.58-1.089-1.262-1.089-1.262l28.922-62.506s1.693-.63 3.09-.296c.887.213 1.655.814 1.794 2.21" transform="translate(14 17)"/>
                    <path fill="#EFAC9C" d="M73.26 64.744c-.785-.586-1.11-1.273-1.11-1.273l29.033-62.385s.511-.852 1.932-.514" transform="translate(14 17)"/>
                    <path fill="#C38E89" d="M58.991 64.744l23.611 11.612s.168-1.858.171-3.454c.003-1.153-.665-2.203-1.706-2.701l-16.503-7.923c-.889-.425-1.937-.368-2.763.168-.755.488-1.741 1.23-2.81 2.298" transform="translate(14 17)"/>
                    <path fill="#EFAC9C" d="M82.01 76.543L59.213 65.466c-.338-.166-.482-.576-.317-.916l.182-.37c.164-.342.575-.484.916-.318L82.789 74.94c.341.164.481.575.317.916l-.18.37c-.167.34-.576.482-.916.318" transform="translate(14 17)"/>
                    <path fill="#FFF3F3" d="M95 71.808c0 7.357-5.965 13.322-13.322 13.322-7.358 0-13.322-5.965-13.322-13.322 0-7.357 5.964-13.321 13.322-13.321C89.035 58.487 95 64.45 95 71.807" opacity=".41" transform="translate(14 17)"/>
                    <path fill="#FFF3F3" d="M111.462 77.147c0 7.358-5.965 13.32-13.321 13.32-7.36 0-13.324-5.962-13.324-13.32 0-7.358 5.965-13.322 13.324-13.322 7.356 0 13.32 5.964 13.32 13.322" opacity=".47" transform="translate(14 17)"/>
                    <path fill="#FFF3F3" d="M64.562 73.478c0 10.186-8.258 18.445-18.445 18.445-10.19 0-18.448-8.259-18.448-18.445 0-10.187 8.258-18.445 18.448-18.445 10.187 0 18.445 8.258 18.445 18.445" opacity=".41" transform="translate(14 17)"/>
                    <path fill="#FFF3F3" d="M34.019 75.683c0 4.422-3.585 8.009-8.007 8.009-4.424 0-8.01-3.587-8.01-8.01 0-4.422 3.586-8.008 8.01-8.008 4.422 0 8.007 3.586 8.007 8.009" opacity=".61" transform="translate(14 17)"/>
                    <path fill="#FFF3F3" d="M74.165 61.15c0 4.188-3.396 7.584-7.584 7.584-4.187 0-7.584-3.396-7.584-7.584s3.397-7.584 7.584-7.584c4.188 0 7.584 3.396 7.584 7.584" opacity=".41" transform="translate(14 17)"/>
                </g>
            </g>
        </g>
    </g>
</svg>
