<svg xmlns="http://www.w3.org/2000/svg" xmlns:xlink="http://www.w3.org/1999/xlink" width="202" height="165" viewBox="0 0 202 165">
    <defs>
        <path id="t35sjxwnqb" d="M10 131h148c5.523 0 10-4.477 10-10V10c0-5.523-4.477-10-10-10H10C4.477 0 0 4.477 0 10v111c0 5.523 4.477 10 10 10z"/>
        <path id="wygef4xcud" d="M0.028 0.183L25.023 0.183 25.023 21.181 0.028 21.181z"/>
        <path id="xn18agr81f" d="M0.001 0.286L46.922 0.286 46.922 29.903 0.001 29.903z"/>
        <filter id="7x7mkz501a" width="127.4%" height="135.1%" x="-13.7%" y="-17.6%" filterUnits="objectBoundingBox">
            <feOffset dy="4" in="SourceAlpha" result="shadowOffsetOuter1"/>
            <feGaussianBlur in="shadowOffsetOuter1" result="shadowBlurOuter1" stdDeviation="4"/>
            <feColorMatrix in="shadowBlurOuter1" result="shadowMatrixOuter1" values="0 0 0 0 0 0 0 0 0 0 0 0 0 0 0 0 0 0 0.15 0"/>
            <feMerge>
                <feMergeNode in="shadowMatrixOuter1"/>
                <feMergeNode in="SourceGraphic"/>
            </feMerge>
        </filter>
    </defs>
    <g fill="none" fill-rule="evenodd">
        <g>
            <g filter="url(#7x7mkz501a)" transform="translate(-174 -327) translate(191 344)">
                <mask id="m65vs59cqc" fill="#fff">
                    <use xlink:href="#t35sjxwnqb"/>
                </mask>
                <path stroke="#FFF" stroke-width="3" d="M158 1.5c2.347 0 4.472.951 6.01 2.49 1.539 1.538 2.49 3.663 2.49 6.01h0v111c0 2.347-.951 4.472-2.49 6.01-1.538 1.539-3.663 2.49-6.01 2.49h0H10c-2.347 0-4.472-.951-6.01-2.49-1.539-1.538-2.49-3.663-2.49-6.01h0V10c0-2.347.951-4.472 2.49-6.01C5.528 2.45 7.653 1.5 10 1.5h0z"/>
                <g mask="url(#m65vs59cqc)">
                    <g>
                        <path fill="#FFF3F3" d="M59.824 84.337L50.028 89.816 46.698 84.337 55.567 80.612z" transform="translate(27.267 10.369)"/>
                        <g>
                            <path fill="#FFF3F3" d="M.93 53.496C5.247 76.582 33.7 90.701 64.48 85.033c30.781-5.67 52.233-28.982 47.917-52.066C108.081 9.881 79.628-4.238 48.847 1.43 18.067 7.1-3.387 30.412.93 53.496" transform="translate(27.267 10.369)"/>
                            <path fill="#E4E3E3" d="M62.317 48.69c-.092.239-.103.494-.142.743.244-.214.116-.493.142-.743" transform="translate(27.267 10.369)"/>
                            <path fill="#EAC5C5" d="M65.57 58.388c-.66-.528-.673-2.153-1.468-1.831-1.014.41-2.048 1.446-2.343 2.643-.646 2.61-1.137 5.261-1.616 7.91-.21 1.162-.012 1.299 1.09.871.985-.38 1.796-.07 2.524.519.639.516 1.208 1.124 1.781 1.714.564.58.452.965-.377 1.077-.156.021-.316.036-.472.015-2.088-.279-4.151-.079-6.234.148-1.786.196-2.603-.64-2.791-2.414-.231-2.175-.51-4.344-.744-6.519-.08-.755-.466-.924-1.133-.719-.716.22-1.42.519-2.151.626-1.098.161-1.202.727-.96 1.641.158.599.196 1.24.206 1.863.044 3.165-1.295 4.806-4.458 5.321-2.026.33-4.068.298-6.13.18-3.22-.19-6.45-.367-9.675.18-1.624.275-3.276.519-4.941.37-.499-.043-1.087-.07-1.24-.695-.145-.6.273-.945.733-1.212 1.03-.595 2.005-1.256 2.736-2.207.629-.823.463-1.215-.56-1.444-2.715-.605-5.426-.736-8.146-.009-.846.225-1.72.269-2.576.05-.43-.111-.83-.34-.898-.832-.064-.463.276-.732.632-.903 1.603-.764 2.662-1.995 3.435-3.571.646-1.311 2.247-1.623 3.278-.58 1.049 1.056 2.065.886 3.227.419 1.278-.511 2.556-1.031 3.861-1.477.908-.31 1.865-.338 2.784.008.817.31.96-.12.78-.727-.198-.683-.383-1.355-.365-2.069-.243-.702-.372-1.342.498-1.776.584-.291.344-.912.338-1.389-.017-1.3.269-2.466 1.154-3.474 1.212-1.382 2.843-1.638 4.52-1.599 3.072.075 5.249 1.82 6.948 4.136 1.212 1.651 2.115 3.51 2.613 5.143-.605-4.578-1.26-9.521-3.171-14.194-.517-1.26-.184-1.644 1.137-1.586 2.7.12 5.431.475 7.996-.78 2.144-1.097 4.327-2.116 6.501-3.15 1.154-.549 1.362-.87.882-1.995-.416-.97-.654-1.974-.86-2.994-.061-.296-.195-.48-.44-.644-1.629-1.087-2.23-2.54-1.612-4.354.357-1.05.604-2.328 2.161-2.435.484-.032.676-.545.78-.947.338-1.3 1.05-2.394 1.83-3.456 2.19-2.922 4.998-4.988 8.587-5.85 5.531-1.326 10.527-.052 15.02 3.313 2.868 2.145 4.615 4.99 5.094 8.532.544 4.047-.679 7.67-3.032 10.906-1.75 2.404-3.615 4.734-5.625 6.94-1.571 1.725-3.387 3.038-5.836 3.197-.159-.4.073-.611.41-.655.738-.098 1.357-.534 1.844-.621-1.973.982-4.215.987-6.524.28-1.897-.58-3.508-1.653-5.099-2.746-1.395-.955-2.912-1.8-3.728-3.105.893.974 1.773 2.246 2.748 3.445.38.468.757.7 1.416.494.59-.184 1.214-.132 1.118.786-.966.068-1.031.745-.912 1.44.846 4.927 1.208 9.945 2.9 14.709.286.803.41 1.669.557 2.514.124.716.544.89 1.185.771.078-.014.157-.024.232-.047 3.208-.901 2.968-.236 4.788 2.516.172.262.3.599.068.88-.267.329-.657.257-.98.1-.67-.324-1.31-.71-1.976-1.043-.32-.16-.698-.272-1.01-.021-.411.33-.044.618.117.91.364.66.077.97-.594.999-1.142.054-2.284.037-3.408-.234-.735-.18-1.131-.714-1.438-1.305-1.339-2.57-2.668-5.146-3.96-7.74-.363-.729-.937-1.37-1.027-2.223.326-.177.392-.474.498-.815.566-1.818 1.054-3.656 1.492-5.452-.408.485-.746 1.1-1.175 1.646-.833 1.062-1.287 2.136-.467 3.425.298.469.121.9-.346 1.202" transform="translate(27.267 10.369)"/>
                            <path fill="#EAEAEA" d="M55.392 41.215c-1.601 1.018-3.394 1.207-5.222 1.08-.863-.06-1.727-.104-2.594-.136-.975-.038-1.132.307-.778 1.203 1.927 4.883 2.896 9.972 3.133 15.201.017.37.126.779-.259 1.205-.937-2.277-1.816-4.526-3.163-6.519-1.981-2.929-4.715-4.685-8.384-4.015-2.02.369-3.263 1.764-3.334 3.815-.039 1.142-.091 2.287.422 3.388-1.75-1.04-1.75-1.04-1.854.298-.574-3.356-2.053-6.67-.623-10.131 1.134-2.74 3.283-4.273 6.164-4.906 2.24-.49 4.461-.097 6.692.038 2.115.128 4.233.214 6.355.203 1.216-.005 2.255-.681 3.445-.724" transform="translate(27.267 10.369)"/>
                            <path fill="#C8928B" d="M71.027 46.155c-.323-.395-.764-.616-1.031-.067-.485 1-.905.438-1.27-.005-1.423-1.717-2.842-3.443-3.96-5.383-.149-.259-.462-.613-.152-.83.393-.276.606.197.813.444 2.096 2.517 4.774 4.309 7.652 5.758 2.85 1.438 5.865 1.69 8.887.351.17-.074.333-.216.621-.055-.63.917-1.676 1.047-2.58 1.392-.402.153-.842.197-1.164.52-2.886.308-5.45-.555-7.816-2.125M40.476 64.022c-2.101 1.161-4.473 1.474-6.75 2.067-.476.126-.838-.35-1.2-.658-1.082-.92-2.391-.82-3.31.266-.2.241-.327.615-.71.472-1.354-.506-2.839-.015-4.188-.59-.624-.265-1.38-.311-1.978-.085-1.278.483-2.661.272-3.93.738-.278.103-.634.108-.927.043-.441-.1-1.056-.088-1.162-.633-.104-.519.473-.647.826-.864 1.2-.736 2.128-1.681 2.697-3.007.667-1.558 1.968-1.75 3.276-.59.934.83 2.006.566 3.014.232 1.38-.455 2.737-.985 4.074-1.551 1.036-.438 1.985-.366 2.937.179.262.15.533.422.862.205.326-.215.16-.555.158-.86-.002-1.082-.456-2.1-.589-3.23.8.711 1.687 1.21 2.154 1.965 1.275 2.055 2.87 3.805 4.6 5.462.1.094.1.29.146.44M50.245 59.21c-.092-.83.133-1.155.644-1.383 1.13-.5 1.801-1.348 2.267-2.534 1.238-3.165 3.458-5.548 6.41-7.26.135-.079.273-.165.422-.204.282-.076.628-.36.84.008.166.287-.162.498-.355.67-1.306 1.163-2.303 2.556-3.158 4.065-.974 1.72-1.668 3.544-1.875 5.5-.092.872-.49 1.643-.587 2.497-.044.382-.35.597-.696.73-.441.171-.877.352-1.33.488-1.982.605-2.243.427-2.43-1.595-.04-.428-.13-.85-.152-.983M65.57 58.388c.075-.71-.337-1.267-.627-1.855-.218-.446-.35-.877-.11-1.337.84-1.625 1.979-3.045 3.186-4.78.4 1.709-.21 3.02-.481 4.342-.227 1.098-.708 2.142-.987 3.232-.175.683-.464.732-.982.392l.002.006z" transform="translate(27.267 10.369)"/>
                            <path fill="#E2E2E2" d="M40.476 64.022c.804-.39 1.255.096 1.634.682.128.198-.013.416-.243.405-.71-.033-1.34-.207-1.391-1.087" transform="translate(27.267 10.369)"/>
                            <path fill="#161943" d="M88.77 22.07c-1.318-.225-2.267-.945-3.208-1.703-1.375-1.106-2.737-2.232-4.35-2.996-.39-.184-.981-.373-.873-.92.133-.65.806-.866 1.35-.897 1.593-.09 3.006.514 4.324 1.356 1.529.976 3.156 1.56 5.02 1.3 1.355-.189 2.56-.61 3.276-1.918.13-.237.213-.642.568-.505.217.083.392.392.497.637.637 1.492-.39 4.401-1.937 5.14-1.5.715-3.073 1.428-4.668.506" transform="translate(27.267 10.369)"/>
                        </g>
                        <g>
                            <g transform="translate(27.267 10.369) translate(22.944 87.239) translate(22.944 8.722)">
                                <mask id="gi5zpmsvpe" fill="#fff">
                                    <use xlink:href="#wygef4xcud"/>
                                </mask>
                                <path fill="#EAC5C5" d="M24.311 7.652c.757 2.991.789 6.075.644 9.136-.132 2.803-.434 5.594-1.893 8.116-.927 1.61-1.822 1.874-3.654 1.651-2.536-.306-4.784-1.373-6.975-2.578-.576-.315-.757-.246-.703.379.078.904.24 1.804.362 2.708.057.428.359.452.718.462 1.237.033 2.48-.107 3.712.075-1.698.096-3.394.02-5.09.02-3.55 0-7.1.016-10.65.022-.252 0-.505-.028-.754-.04.62-.188 1.25-.051 1.877-.077.385-.018.583-.135.665-.537.374-1.807.787-3.604 1.173-5.408.066-.307.138-.624-.247-.84-.357-.2-.393-.547-.313-.911.284.753 1.057 1.083 1.88.823.211-.067.27-.2.295-.38.273-2.01.586-4.013.795-6.029.054-.538-.231-1.106-.341-1.662-.14-.709-.182-1.418.047-2.124 0 0-.09-8.978 2.88-8.978 2.971 0 10.89-2.026 11.88-1.013.991 1.013 2.435 2.215 3.692 7.185" mask="url(#gi5zpmsvpe)"/>
                            </g>
                            <g transform="translate(27.267 10.369) translate(22.944 87.239)">
                                <mask id="ebhwptblbg" fill="#fff">
                                    <use xlink:href="#xn18agr81f"/>
                                </mask>
                                <path fill="#181A44" d="M20.392 18.715c-2.018 1.765-3.791 3.824-5.713 5.7-1.901 1.854-3.942 3.421-6.589 3.755-2.092.267-3.892-.407-5.291-2.06C.303 23.161-.563 19.667.363 15.767c.67-2.825 2.927-4.798 5.692-4.912 5.107-.213 10.163.098 14.899 2.544.354.184.677.373.891-.263 1.385-4.084 4.293-5.922 8.08-6.503 1.839-.281 3.676-.546 5.533-.522.537.007.765-.125.875-.761.496-2.897 2.193-4.683 4.672-5.023 2.191-.297 4.366.999 5.363 3.2 1.057 2.337.583 4.944-1.264 6.958l-.131.15c-.508.93-1.368 1.23-2.249 1.43-1.904.435-3.782 1.045-5.747 1.108-.488.016-.659.273-.62.807.102 1.32.071 2.648.032 3.968-.04 1.264-.385 1.477-1.408.97-1.534-.763-3.427.457-3.719 2.4-.223 1.477.408 3.55 1.842 4.104.66.281.882.754.538 1.472-.793 1.561-1.77 2.957-3.102 4.032-.964.782-2.003 1.158-3.203.779-1.86-.345-3.161-1.571-4.172-3.216-1.266-2.062-1.918-4.372-2.206-6.816-.092-.776-.16-1.557-.18-2.34-.007-.275.09-.676-.387-.619" mask="url(#ebhwptblbg)"/>
                            </g>
                        </g>
                    </g>
                </g>
            </g>
        </g>
    </g>
</svg>
