<svg xmlns="http://www.w3.org/2000/svg" width="40" height="51" viewBox="0 0 40 51">
    <g fill="none" fill-rule="evenodd">
        <g fill="#C38E89">
            <g>
                <path d="M123.41 86.479v22.807h-13.526c-.78 0-1.42-.594-1.493-1.355l-.007-.145V87.98c0-.78.595-1.42 1.356-1.493l.144-.007h13.526zm18.692 0c.78 0 1.42.595 1.493 1.356l.007.144v19.807c0 .78-.595 1.42-1.356 1.494l-.144.006h-13.527V86.479h13.527zm-18.692-11.15v9.122h-15.373c-1.055 0-1.919-.815-1.995-1.85l-.005-.15V77.33c0-1.055.815-1.919 1.85-1.995l.15-.005h15.373zm20.54 0c1.054 0 1.918.816 1.994 1.85l.006.15v5.123c0 1.054-.816 1.918-1.851 1.994l-.15.006-15.373-.001v-9.122h15.374zm-9.193-16.273c1.788 0 3.292.907 4.234 2.554 1.219 2.13 1.269 4.503.141 6.685-1.821 3.525-6.432 5.987-11.214 5.987-.598 0-1.512-.052-2.114-.13-.596.079-1.51.13-2.107.13-4.783 0-9.394-2.462-11.215-5.987-1.128-2.182-1.077-4.556.141-6.685.943-1.647 2.447-2.554 4.235-2.554 3.86 0 7.14 3.681 8.998 8.233l-.05-.117.078-.185c1.878-4.411 5.099-7.931 8.873-7.931zm-17.9 3.04c-.808 0-1.409.365-1.837 1.112-.676 1.183-.703 2.396-.078 3.606 1.382 2.674 5.338 4.571 9.232 4.417-1.434-6.22-5.093-9.134-7.316-9.134zm17.9 0c-2.223 0-5.882 2.914-7.317 9.135 3.894.154 7.85-1.743 9.232-4.417.625-1.21.599-2.423-.078-3.606-.428-.747-1.029-1.111-1.837-1.111z" transform="translate(-172 -317) translate(66 258)"/>
            </g>
        </g>
    </g>
</svg>
