<svg xmlns="http://www.w3.org/2000/svg" width="28" height="25" viewBox="0 0 28 25">
    <g fill="none" fill-rule="evenodd">
        <g fill="#C8928B" fill-rule="nonzero">
            <g>
                <g>
                    <path d="M27 11c.552 0 1 .448 1 1v12c0 .552-.448 1-1 1H1c-.552 0-1-.448-1-1V12c0-.552.448-1 1-1h26zm-10.144 4.465h-5.712c-.305 0-.558.217-.605.5l-.008.098V25h6.938v-8.937c0-.33-.275-.598-.613-.598zm8.486 0h-4.968c-.338 0-.613.268-.613.598v6.77c0 .33.275.598.613.598h4.968c.34 0 .614-.267.614-.597v-6.771c0-.33-.275-.598-.614-.598zm-17.716 0H2.657c-.304 0-.557.217-.605.501l-.008.097v6.77c0 .298.223.544.514.59l.1.008h4.968c.305 0 .557-.217.605-.5l.008-.097v-6.771c0-.33-.275-.598-.613-.598zM23.917 0c.518 0 .981.334 1.162.838l2.442 6.825c.04.108.059.222.059.337 0 .552-.448 1-1 1H1.42c-.115 0-.229-.02-.337-.058-.52-.187-.79-.759-.604-1.279L2.92.838C3.101.334 3.565 0 4.083 0z" transform="translate(-131 -128) translate(120 115) translate(11 13)"/>
                </g>
            </g>
        </g>
    </g>
</svg>
