<svg xmlns="http://www.w3.org/2000/svg" width="28" height="25" viewBox="0 0 28 25">
    <g fill="none" fill-rule="evenodd">
        <g fill="#C38E89" fill-rule="nonzero">
            <g>
                <g>
                    <path d="M9.506 13.678l10.227 4.996c-1.087 1.798-2.618 3.5-3.75 4.646l-.287.287c-.69.682-1.179 1.111-1.234 1.16-.286.246-.7.307-1.056.135L9.162 22.83c-.403-.198-.6-.638-.497-1.049-.883.092-1.787-.067-2.606-.467l-4.535-2.215c-.374-.183-.58-.582-.51-.985.07-.401.402-.711.817-.762.007 0 .075-.01.195-.029l.168-.028c1.246-.215 5.37-1.098 7.312-3.616zM22.134.531c.244-.475.833-.666 1.322-.43.486.239.683.817.44 1.292l-5.602 9.779 1.76.861c1.465.719 2.046 2.453 1.319 3.873l-.21.41c-.129.25-.433.351-.685.228l-9.64-4.718-.01-.004c-.252-.13-.352-.44-.222-.693l.201-.393c.73-1.42 2.507-2.001 3.965-1.288l1.76.861z" transform="translate(-301 -128) translate(290 115) translate(11 13)"/>
                </g>
            </g>
        </g>
    </g>
</svg>
