<svg xmlns="http://www.w3.org/2000/svg" width="28" height="25" viewBox="0 0 28 25">
    <g fill="none" fill-rule="evenodd">
        <g fill="#C38E89" fill-rule="nonzero">
            <g>
                <g>
                    <path d="M9.55 11.296l.033.02.03.024c.511.424.912.746 1.083.885l.45.367.233.19c.225.185.273.51.11.752l-.026.037c-1.185 1.712-1.987 1.961-3.317 2.358-.589.175-.417 1.264-.417 1.486v6.586c0 .552-.447.999-.999.999H1C.447 25 0 24.553 0 24.001v-8.072c0-1.3 1.103-2.358 2.458-2.358h2.514c1.86 0 3.168-.622 4.002-2.092l.006-.01.006-.01c.11-.201.363-.274.564-.163zm8.813 0c.2-.11.453-.038.564.162l.006.01.006.011c.833 1.47 2.141 2.092 4.002 2.092h2.513c1.356 0 2.459 1.058 2.459 2.358V24c0 .552-.448.999-1 .999h-5.73c-.552 0-1-.447-1-.999v-6.586c0-.222.172-1.31-.417-1.486-1.33-.397-2.131-.646-3.316-2.358l-.026-.037c-.163-.241-.116-.567.11-.751l.232-.191.45-.367c.172-.14.573-.46 1.083-.885l.03-.023zM16.921 1c2.083 0 3.654 1.607 3.654 3.74 0 2.227-1.867 3.737-4.452 5.827-1.696 1.375-1.4 1.148-2.054 1.688-.538-.444-.456-.393-2.054-1.688-2.585-2.09-4.452-3.6-4.452-5.827 0-2.133 1.57-3.74 3.654-3.74 1.05 0 2.036.448 2.852 1.28C14.885 1.448 15.87 1 16.92 1zM3.416 5.714c1.81 0 3.278 1.407 3.278 3.143C6.694 10.593 5.226 12 3.416 12S.138 10.593.138 8.857c0-1.736 1.467-3.143 3.278-3.143zm21.306 0c1.81 0 3.278 1.407 3.278 3.143C28 10.593 26.532 12 24.722 12s-3.278-1.407-3.278-3.143c0-1.736 1.468-3.143 3.278-3.143z" transform="translate(-216 -128) translate(205 115) translate(11 13)"/>
                </g>
            </g>
        </g>
    </g>
</svg>
