<svg xmlns="http://www.w3.org/2000/svg" width="28" height="25" viewBox="0 0 28 25">
    <g fill="none" fill-rule="evenodd">
        <g fill="#C38E89" fill-rule="nonzero">
            <g>
                <g>
                    <path d="M14.804 10c1.441 0 2.592.613 3.049 1.664l3.036 8.87c.248.751.175 1.82-1.226 2.307-1.48.513-2.365-.286-2.82-1.374l-1.222-2.662c-.007-.073-.073-.132-.149-.132h-5.17c-.222 0-.387.236-.39.443V19.464l.001.719v.609l-.001.066c-.001.074-.007.003-.01.076-.073 1.912-1.727 1.91-1.727 1.91H1.572c-.226 0-1.493-.25-1.572-1.816 0-2.424 1.65-2.421 1.65-2.421h3.244c.075 0 .11-.054.08-.12C.596 14.327 3.829 10 7.684 10zM23 2c2.761 0 5 2.239 5 5s-2.239 5-5 5-5-2.239-5-5 2.239-5 5-5z" transform="translate(-46 -128) translate(35 115) translate(11 13)"/>
                </g>
            </g>
        </g>
    </g>
</svg>
