<svg xmlns="http://www.w3.org/2000/svg" width="202" height="165" viewBox="0 0 202 165">
    <defs>
        <filter id="rpywq883ka" width="127.4%" height="135.1%" x="-13.7%" y="-17.6%" filterUnits="objectBoundingBox">
            <feOffset dy="4" in="SourceAlpha" result="shadowOffsetOuter1"/>
            <feGaussianBlur in="shadowOffsetOuter1" result="shadowBlurOuter1" stdDeviation="4"/>
            <feColorMatrix in="shadowBlurOuter1" result="shadowMatrixOuter1" values="0 0 0 0 0 0 0 0 0 0 0 0 0 0 0 0 0 0 0.15 0"/>
            <feMerge>
                <feMergeNode in="shadowMatrixOuter1"/>
                <feMergeNode in="SourceGraphic"/>
            </feMerge>
        </filter>
    </defs>
    <g fill="none" fill-rule="evenodd">
        <g>
            <g filter="url(#rpywq883ka)" transform="translate(-174 -189) translate(191 206)">
                <path fill="#FCE3E3" stroke="#FFF" stroke-width="3" d="M158 1.5c2.347 0 4.472.951 6.01 2.49 1.539 1.538 2.49 3.663 2.49 6.01h0v111c0 2.347-.951 4.472-2.49 6.01-1.538 1.539-3.663 2.49-6.01 2.49h0H10c-2.347 0-4.472-.951-6.01-2.49-1.539-1.538-2.49-3.663-2.49-6.01h0V10c0-2.347.951-4.472 2.49-6.01C5.528 2.45 7.653 1.5 10 1.5h0z"/>
                <g>
                    <path fill="#F2D5D3" d="M80.342 82.024c24.579-1.26 42.077-29.12 34.54-52.904C109.845 13.22 94.01-1.961 72.464.222c-17.939 1.814-30.58 10.02-36.547 26.17-7.53 20.395 1.801 48.164 27.85 54.777 5.493 1.394 10.41 1.823 15.733.971" transform="translate(15 16)"/>
                    <path fill="#F4CDC9" d="M79.428 74.372c19.97-1.025 34.184-23.655 28.06-42.978-4.093-12.919-16.957-25.25-34.46-23.477-14.574 1.476-24.844 8.141-29.69 21.261-6.122 16.566 1.462 39.13 22.624 44.498 4.461 1.132 8.455 1.482 12.78.792" transform="translate(15 16)"/>
                    <path fill="#F7C2BC" d="M78.562 67.778c15.982-.82 27.362-18.935 22.461-34.403-3.276-10.34-13.572-20.21-27.585-18.792-11.664 1.182-19.887 6.516-23.764 17.017-4.898 13.264 1.17 31.322 18.108 35.621 3.573.905 6.772 1.186 10.232.632" transform="translate(15 16)"/>
                    <path fill="#EFAC9C" d="M77.509 59.603c11.046-.566 18.915-13.09 15.525-23.78-2.262-7.147-9.382-13.972-19.065-12.992-8.066.817-13.75 4.506-16.433 11.763-3.383 9.17.813 21.653 12.521 24.623 2.47.627 4.68.822 7.073.438" transform="translate(15 16)"/>
                    <path fill="#A3747E" d="M133.014 98.575L18.454 98.575 18.454 46.456 30.838 41.295 123.725 41.295 133.014 46.456z" transform="translate(15 16)"/>
                    <path fill="#845B71" d="M37.738 81.329c-.77 2.495-.28 5.061-.396 7.593-.023.535-.155.758-.727.753-2.556-.023-5.111-.021-7.668-.002-.598.006-.776-.239-.77-.803.02-1.816.008-3.633.006-5.447 0-1.132-.012-1.148-1.18-1.148-8.093 0-16.186.002-24.278-.002-1.243-.002-1.132.164-1.466-1.07-.812-2.997-.534-5.88.982-8.639.692-1.258 1.705-2.226 2.638-3.277 1.075-1.21 1.602-2.675 1.772-4.273.28-2.662 1.203-4.999 3.393-6.686 2.127-1.637 4.487-1.874 7.002-1.146.152.043.304.088.447.15.544.232.73.021.725-.528-.011-1.636-.004-3.273-.004-4.91 0-.582.023-1.168-.005-1.75-.025-.512.151-.739.689-.716.739.03 1.48.027 2.219.002.562-.021.746.222.74.763-.015 2.038.01 4.079-.015 6.118-.007.537.093.83.694.668.036.394-.255.462-.537.56-.505.173-.541.295-.159.596 2.307 1.818 3.265 4.292 3.544 7.126.171 1.735.918 3.222 2.174 4.427 1.438 1.38 2.495 2.985 3.085 4.892.684 2.196.695 4.406.129 6.625-.171.67-.141.743.559.747 1.592.01 3.183-.002 4.776.009.51 0 .989-.013 1.28-.534.06-.113.203-.175.351-.098" transform="translate(15 16)"/>
                    <path fill="#C38E89" d="M44.062 93.172c-.275-.02-.396-.175-.396-.441 0-.18-.004-.359-.004-.54V50.559c0-1.121 0-1.123 1.107-1.123h87.036c1.355 0 1.355 0 1.346 1.357 0 .177-.009.357-.014.537-.205.31-.536.286-.84.293-.935.016-1.867.03-2.8-.028-.514.039-1.029.039-1.545.039-25.082 0-50.162 0-75.244.002-.582 0-1.166-.027-1.748-.018-.737.037-1.478 0-2.215.02-.795.024-.97.205-.998 1.013-.006.224-.002.449-.002.672v37.036c0 .247.005.493.002.74-.007.547.198.897.79.965.31.036.624.107.795.423-.023.477-.398.46-.685.407-1.373-.259-2.709-.18-4.014.345-.2.082-.39.059-.571-.066" transform="translate(15 16)"/>
                    <path fill="#E0D1D1" d="M129.532 51.328h3.605l-.005-.007c.166.222.084.477.084.714.003 6.365-.215 12.74.06 19.094.323 7.545.043 15.086.198 22.628.02.857.113.978.982 1.131.436.077.7.28.729.734.055.873.052 1.746.005 2.62-.014.24-.121.426-.325.556l-27.126.006c-.286-.1-.4-.315-.457-.604-.17-.851-.271-.937-1.162-.939-2.959-.01-5.915-.002-8.873-.005-2.286-.002-4.57.012-6.856-.007-1.166-.013-1.623-.718-1.212-1.827.094-.253.255-.41.539-.425.18-.01.357-.012.537-.012 1.902-.004 3.808-.102 5.704-.086 2.62.023 5.239.068 7.86.095.628.005 1.246-.123 1.872-.1 7.49-.06 14.977-.007 22.465-.034.821-.004 1.012-.218 1.04-1.055.008-.336.003-.673.003-1.009 0-13.318-.002-26.637.009-39.955 0-.515-.177-1.097.324-1.513" transform="translate(15 16)"/>
                    <path fill="#65416B" d="M44.062 93.172c1.412-.714 2.889-.945 4.444-.605.262.057.52.116.79.057.504-.397.934-.054 1.38.135 1.852 1.254 3.677 1.557 5.746.308 2.583-1.557 5.266-1.341 7.837.176 1.52.895 3.012.91 4.503-.021 3.106-1.94 7.216-1.443 9.644 1.216.182.196.398.362.55.585.316.557.764 1.034.98 1.65.138.394.35.784.064 1.203-.02.936-.02.938-.99.938H41.279c-.973 0-.973-.002-.988-.936-.037-.027-.08-.054-.092-.091-.234-.746.551-2.212 1.312-2.464.71-.884 1.537-1.628 2.55-2.151" transform="translate(15 16)"/>
                    <path fill="#C38E89" d="M37.738 81.329c-.209.869-.805 1-1.61.97-1.79-.062-3.587-.044-5.381-.031-.516.003-.662-.1-.491-.652 1.33-4.256.5-8.06-2.557-11.308-1.033-1.098-1.903-2.237-2.378-3.682-.207-.63-.278-1.27-.348-1.91-.301-2.805-1.48-5.088-3.849-6.7-.125-.084-.309-.143-.275-.336.034-.185.232-.184.368-.253.418-.215.944-.106 1.32-.448 1.544-.28 3.068-.29 4.564.258.279.116.565.216.813.397.864.04 1.492.482 1.964 1.18.101.152.274.227.405.344.168.24.434.399.559.674.09.358.385.587.576.881.884 1.386 1.095 2.96 1.298 4.539-.02.425.004.84.247 1.21.362.555.196 1.241.451 1.821.545 1.08 1.546 1.773 2.28 2.693 1.982 2.483 2.789 5.3 2.423 8.451-.075.641-.163 1.286-.379 1.902" transform="translate(15 16)"/>
                    <path fill="#65416B" d="M16.351 82.402l5.481.01c.3.176.295.467.293.764-.006 1.005-.007 2.01.002 3.015.001.19-.054.448.208.503.233.052.313-.167.434-.339.647-.92.61-1.974.638-3.02.01-.317-.136-.684.221-.924 1.859-.046 1.859-.046 1.859 1.802 0 .716.003 1.432-.002 2.15-.007.987-.37 1.831-1.052 2.534-.685.706-1.374 1.41-2.092 2.088-.352.332-.514.689-.5 1.18.03 1.005.012 2.013.012 3.02.149.136.266.288.28.504.06.837.061 1.673 0 2.51-.015.207-.09.384-.294.478-.225.129-.468.136-.718.136-1.344-.002-2.688-.023-4.03.01-.602.017-.783-.204-.765-.781.036-1.075-.096-2.164.038-3.223.17-1.333-.536-2.106-1.404-2.899-.833-.762-1.735-1.494-2.097-2.64-.104-.325-.163-.65-.161-.99.003-1.703.027-3.406-.013-5.107-.014-.638.224-.848.823-.788.311.032.627.006.941.007.148.879.023 1.766.07 2.65.016.328-.073.664.062.985l-.001-.003c.146.828.183 1.689.757 2.385.237.29.476.568.803.764.202-.25.12-.482.121-.693.008-1.813 0-3.627.01-5.443 0-.214-.085-.446.076-.645" transform="translate(15 16)"/>
                    <path fill="#845B71" d="M80 97.876c-.223-.98-.751-1.82-1.228-2.68.03-.059.05-.146.112-.16.93-.206.936-.895.932-1.657-.017-4.344-.005-8.691-.009-13.037 0-1.042-.007-1.04-1.001-1.296-.238-.059-.507-.103-.416-.466.543-.418 1.15-.277 1.733-.157.288.06.391.34.422.627.037.38.036.762.036 1.142.001 4.41-.002 8.822.005 13.235 0 .394-.068.812.218 1.155.535.332 1.137.377 1.739.4 3.752.14 7.493-.36 11.245-.257.227.005.445-.038.64-.163 1.022-.83 2.203-.462 3.33-.405.335.018.478.536.894.512 1.847.143 3.7.018 5.548.068.48.015.984-.107 1.432.184.07.064.093.143.077.236-2.285.005-4.57.018-6.856.02-2.935 0-5.872.02-8.805-.03-.752-.013-.709.376-.698.872.01.496-.093.94.714.936 5.581-.034 11.16-.01 16.74-.03.61-.004.844.155.792.781-.03.36-.145.766.143 1.098-8.946.002-17.89-.002-26.839.027-.759.002-.664-.58-.9-.955M21.84 98.678c.003-1.164.008-2.328.014-3.492L40.8 95.18c.247 0 .497-.026.711.143-.56.78-.993 1.618-1.221 2.555-.152.816-.655.962-1.44.957-5.366-.04-10.733-.02-16.1-.023-.308 0-.631.062-.912-.134M33.414 68.284c-.487-.945-.939-1.902-1.056-2.978.644.225 1.281.434 1.992.364.527-.05.773-.268.775-.793.007-2.308.016-4.615-.006-6.923-.007-.63-.176-.784-.819-.796-.986-.024-1.971-.016-2.957-.004-.808.009-.912.141-.967.937-.034.441.177.96-.313 1.298-.555-.783-1.367-1.253-2.15-1.756.44-.22.26-.629.263-.96.02-1.727.011-1.727 1.759-1.727 2.196 0 4.395.017 6.591-.013.61-.005.82.177.816.804-.023 3.743-.021 7.489-.002 11.233.004.589-.184.798-.773.773-.896-.038-1.794.007-2.69-.016-.438-.013-.57.155-.463.557" transform="translate(15 16)"/>
                    <path fill="#413960" d="M23.628 82.411c-.007.648-.035 1.298-.017 1.944.039 1.348-.58 2.345-1.779 3.305v-5.249c.463-.048.568.21.565.61-.011 1.061-.004 2.12-.004 3.354.714-1.091.77-2.153.81-3.226.013-.315-.103-.715.425-.738" transform="translate(15 16)"/>
                    <path fill="#41395F" d="M16.351 82.402v7.104c-1.268-.951-1.862-2.037-1.767-3.472.198.339.205.726.283 1.094.163.775.554 1.395 1.2 1.871.223-.235.129-.493.13-.723.01-1.7.004-3.4.006-5.1.002-.267-.045-.543.148-.774" transform="translate(15 16)"/>
                    <path fill="#41395F" d="M14.585 86.038c-.26-.78-.07-1.582-.12-2.373-.027-.418-.009-.843-.012-1.262.273.685.09 1.401.128 2.105.029.509.004 1.02.004 1.53" transform="translate(15 16)"/>
                    <path fill="#57577E" d="M27.914 57.633c-.313-.048-.577-.19-.812-.396.333.003.615.116.812.396" transform="translate(15 16)"/>
                    <path fill="#C38E89" d="M32.822 82.394c.671 0 1.344.018 2.017-.006.454-.016.648.141.641.618-.018 1.387-.018 2.778 0 4.169.005.457-.164.64-.628.635-1.391-.017-2.78-.017-4.17 0-.454.006-.645-.153-.64-.623.02-1.412.014-2.824.004-4.236-.004-.398.151-.57.557-.56.739.015 1.48.004 2.219.003" transform="translate(15 16)"/>
                    <path fill="#AD7D81" d="M78.405 78.609c.327.3.727.153 1.09.153.449.002.643.143.642.62-.011 5.056-.011 10.112 0 15.168.001.462-.166.659-.629.626-.244-.016-.49.013-.737.02-.373-.35-.74-.71-1.121-1.053-2.232-1.986-5.808-2.407-8.341-.841-1.914 1.184-3.662 1.155-5.6.023-2.366-1.38-4.866-1.339-7.233.054-1.753 1.033-3.437 1.192-5.181.084-.243-.154-.563-.168-.75-.42.193-.609.196-1.234.196-1.864-.003-12.806-.003-25.614.002-38.42 0-.486-.093-.99.186-1.444l78.202-.002c.134 0 .268.01.402.016-.009.359-.03.716-.03 1.075v41.76c0 .99-.002.991-.998.991-7.599.002-15.197.002-22.797.002l-.01-.098c-.104-.224-.17-.456-.174-.706-.014-1.373-.027-2.749.009-4.122.007-.22.014-.448.184-.625.344-.268.755-.25 1.157-.251 1.569-.011 3.14.001 4.711-.008 1.04-.005 1.191-.146 1.193-1.153.007-3.297.007-6.593-.002-9.89-.002-.945-.154-1.072-1.102-1.102-1.319-.043-2.645.112-3.96-.1-.15-.029-.285-.1-.426-.155-1.134-.87-2.139-1.89-3.22-2.825-1.875-1.617-3.757-3.235-5.551-4.94-.94-.893-1.871-1.273-3.1-1.16-.334.03-.683-.015-.823-.423-.155-.39-.112-.797-.114-1.198-.005-3.296.002-6.59-.004-9.888-.001-1.124-.117-1.242-1.226-1.244-2.062-.005-4.124-.009-6.188.002-.94.003-1.093.159-1.094 1.103-.01 3.296-.008 6.592 0 9.887.001 1 .142 1.132 1.119 1.152.446.009.898-.032 1.337.08.432.263.288.573.025.825-1.132 1.086-2.34 2.082-3.508 3.124-1.366 1.223-2.755 2.421-4.115 3.65-.563.51-1.159.983-1.696 1.526-.31.312-.466.632-.454 1.066.011.33.049.684-.271.925" transform="translate(15 16)"/>
                    <path fill="#E0D1D1" d="M50.93 51.314c.117.256.1.525.1.793 0 13.381.001 26.764-.006 40.145 0 .337.175.83-.48.79l-1.248-.417c-.404-.227-.853-.295-1.298-.262-.534.039-.677-.2-.618-.672.011-.089 0-.178 0-.267 0-13.05 0-26.097.002-39.145 0-.968 0-.97.993-.968l2.555.003" transform="translate(15 16)"/>
                    <path fill="#C38E89" d="M30.064 59.389c-.004-.672 0-1.345-.016-2.016-.011-.396.153-.564.555-.56 1.432.008 2.865.01 4.297-.002.446-.006.578.2.577.612-.01 2.642-.011 5.283.003 7.925.002.48-.203.63-.648.614-.49-.02-.985-.027-1.476.002-.513.028-.872-.129-.998-.659-.079-1.608-.46-3.133-1.229-4.556-.185-.27-.351-.55-.535-.818-.177-.182-.352-.362-.53-.542" transform="translate(15 16)"/>
                    <path fill="#43425D" d="M30.593 59.93c.284.203.474.47.536.818-.284-.203-.455-.482-.536-.817" transform="translate(15 16)"/>
                    <path fill="#845B71" d="M94.792 67.71c.043.007.09.029.132.02 1.916-.4 3.2.609 4.513 1.828 2.6 2.424 5.315 4.726 7.982 7.077.352.548.224 1.157.206 1.748-.007.346-.26.47-.577.539-.837.184-.882.25-.896 1.109-.02 1.38.041 2.76-.043 4.14.064 1.203.064 2.403.002 3.606-.034.638.252 1.32-.275 1.882-.014 1.539-.023 3.08-.043 4.619-.004.26.066.537-.096.78l-7.195-.02c-.452-.414-.386-.968-.388-1.492-.009-4.39-.001-8.782-.009-13.173 0-.396.074-.815-.237-1.15-.571-.301-1.194-.422-1.817-.378-2.279.168-4.562.082-6.842.107-1.232.013-1.358.125-1.358 1.34-.006 4.477.001 8.954-.006 13.432-.002 1.396-.009 1.396-1.412 1.396-1.835 0-3.67.002-5.508-.003-.216-.002-.45.073-.648-.08l-.007-15.338c0-1.063 0-1.06-1.059-1.066-.27-.002-.537-.016-.807-.025-.24-1.243.249-2.084 1.22-2.907 3.046-2.59 5.995-5.291 8.984-7.952.137-.3.42-.308.689-.316 1.589-.037 3.178-.03 4.768-.005.277.004.534.06.727.282" transform="translate(15 16)"/>
                    <path fill="#A3747E" d="M80.277 95.036c2.195.007 4.39-.004 6.585.03.626.007.67-.32.67-.803-.008-4.21-.003-8.422-.003-12.633 0-.763.011-1.523-.003-2.285-.01-.466.15-.71.653-.707 3.248.005 6.495-.002 9.745-.006.18 0 .358.01.508.134-.214.284-.528.302-.846.313-.514.016-1.028-.006-1.54.014-.715.03-.895.214-.924.942-.018.491-.005.984-.005 1.477 0 3.8-.01 7.6.007 11.4.005.742-.157 1.431-.368 2.126-1.637 0-3.283-.104-4.911.025-2.912.226-5.824.058-8.734.123-.282.005-.589.084-.834-.15" transform="translate(15 16)"/>
                    <path fill="#C38E89" d="M94.757 95.038c.014-.313.04-.625.04-.936.003-4.81.001-9.617.001-14.425 0-.904.004-.906.884-.91h2.751c.007 5.087.01 10.177.02 15.267.001.334.032.67.048 1.004-.868-.91-1.993-.604-3.048-.668-.528-.032-.46.453-.696.668" transform="translate(15 16)"/>
                    <path fill="#E0D1D1" d="M113.083 61.37c0 1.883-.018 3.764.01 5.646.01.557-.164.734-.724.729-2.578-.025-5.155-.022-7.73-.002-.522.003-.704-.15-.7-.686.019-3.81.017-7.62 0-11.43-.003-.524.16-.7.692-.694 2.6.022 5.199.018 7.798.002.495-.004.668.153.663.653-.022 1.928-.01 3.855-.01 5.781M94.792 67.71l-6.184.04c-.716-.004-1.436-.049-2.15-.004-.612.037-.807-.16-.803-.79.026-3.404.014-6.81.014-10.217 0-.426.01-.851-.002-1.276-.01-.364.134-.525.512-.523 2.71.009 5.424.01 8.134 0 .45-.002.502.248.502.605-.012 4.054-.018 8.11-.023 12.165M63.822 61.37c0 1.884-.02 3.768.011 5.651.01.561-.173.729-.726.724-2.58-.026-5.158-.022-7.735-.002-.52.003-.701-.149-.7-.684.02-3.812.02-7.623.002-11.435-.003-.53.166-.695.695-.691 2.6.02 5.2.02 7.8.002.496-.004.668.15.662.653-.023 1.928-.009 3.856-.009 5.783M63.822 83.264c0 1.883-.016 3.767.01 5.65.006.547-.158.75-.724.745-2.58-.023-5.157-.022-7.736-.002-.519.005-.701-.15-.7-.687.02-3.812.019-7.624.004-11.435-.002-.484.14-.677.648-.674 2.623.02 5.247.02 7.87 0 .525-.005.64.215.636.686-.018 1.905-.008 3.812-.008 5.717M76.599 83.257c.002 1.837-.023 3.676.014 5.513.014.653-.146.907-.855.894-2.509-.04-5.019-.03-7.529-.005-.568.007-.785-.13-.782-.746.027-3.764.027-7.53.002-11.293-.004-.598.186-.767.771-.762 2.532.029 5.065.03 7.597-.002.635-.007.803.225.792.822-.028 1.858-.01 3.718-.01 5.579M67.461 61.268c0-1.882.016-3.763-.01-5.645-.008-.536.174-.695.697-.691 2.577.021 5.153.023 7.73 0 .563-.005.733.194.73.739-.017 3.787-.015 7.573 0 11.36.001.496-.11.72-.672.714-2.598-.027-5.197-.025-7.796-.002-.536.006-.695-.173-.69-.696.025-1.926.011-3.853.011-5.779M105.835 89.659c-.066-.616-.082-1.228.01-1.844.21-.343.554-.336.892-.341 1.028-.018 2.056 0 3.085-.01.921-.01 1.057-.147 1.073-1.044.014-.716-.018-1.432.018-2.147-.022-1.448-.006-2.898-.024-4.344-.009-.768-.192-.945-.948-.971-.601-.022-1.203.007-1.805-.029-.428-.023-.674-.205-.623-.67.054-.451-.117-.919.113-1.356 1.635-.01 3.272-.015 4.908-.036.405-.005.553.155.553.555-.007 3.88-.012 7.758.002 11.637.002.564-.307.595-.732.593-2.173-.004-4.347.003-6.522.007" transform="translate(15 16)"/>
                    <path fill="#C38E89" d="M107.626 76.903c-.05 1.786-.05 1.772 1.69 1.793.618.009 1.405-.277 1.809.146.368.388.107 1.155.11 1.755.011 1.229-.01 2.457-.017 3.687-.1.05-.193.125-.307.132-1.521.095-3.043.068-4.565.018-.22-.007-.377-.129-.52-.279-.005-1.628-.002-3.256-.02-4.884-.003-.409.12-.641.57-.614 1.243.078 1.087-.084 1.093-1.155.001-.29-.03-.579-.049-.866l.206.267" transform="translate(15 16)"/>
                    <path fill="#9A6C7B" d="M103.949 83.27c0 1.277-.016 2.554.007 3.83.01.505-.14.74-.684.716-.782-.034-1.568-.02-2.35-.005-.407.007-.624-.115-.623-.568.01-2.665.008-5.33.002-7.993-.002-.384.141-.59.545-.589.85.004 1.701.007 2.551-.002.459-.005.557.257.553.648-.009 1.323-.001 2.644-.001 3.964M82.026 83.18c0-1.255.018-2.512-.007-3.767-.013-.535.148-.789.721-.762.763.032 1.527.02 2.289.005.455-.009.64.182.636.643-.011 2.624-.011 5.249.001 7.871.002.456-.151.657-.624.643-.784-.023-1.57-.027-2.355.002-.495.016-.675-.17-.668-.664.023-1.325.007-2.648.007-3.97" transform="translate(15 16)"/>
                    <path fill="#C38E89" d="M90.25 76.675l2.348-2.082c1.426-1.26 2.858-2.513 4.274-3.784.284-.258.494-.313.8-.041 2.124 1.892 4.258 3.774 6.386 5.657.098.086.243.173.193.322-.054.158-.225.12-.352.12-3.519.012-7.038.022-10.557.031-1.001.002-2.003 0-3.004 0-.029-.075-.057-.148-.088-.223" transform="translate(15 16)"/>
                    <path fill="#835A72" d="M105.826 84.156l4.542-.003c.29 0 .58-.007.85.13.007 1.025.002 2.05.03 3.073.011.403-.173.483-.524.482-1.627-.016-3.252-.016-4.878-.024-.007-1.219-.012-2.436-.02-3.658" transform="translate(15 16)"/>
                    <path fill="#C38E89" d="M105.832 62.215c-.013-1.653-.018-3.307-.04-4.956-.003-.354.14-.47.477-.468 1.498.01 2.996.014 4.492 0 .398-.005.487.18.484.532-.02 1.673-.02 3.35-.029 5.024-.1.052-.193.127-.305.132-1.523.095-3.042.07-4.565.016-.218-.007-.375-.127-.514-.28" transform="translate(15 16)"/>
                    <path fill="#835A72" d="M105.832 62.215c1.489.002 2.98.002 4.468.003.313 0 .625-.018.916.129.01 1.028.005 2.058.032 3.087.011.392-.157.494-.517.49-1.477-.012-2.953-.012-4.428.002-.366.004-.527-.103-.514-.492.028-1.073.03-2.146.043-3.22" transform="translate(15 16)"/>
                    <path fill="#C38E89" d="M92.9 65.843c-.607.234-1.233.078-1.851.098-.986.029-1.973-.005-2.957.013-.417.007-.603-.11-.598-.568.022-2.687.027-5.376.022-8.06 0-.42.166-.54.56-.537 1.455.015 2.912.008 4.367.004.286 0 .541.004.541.402.002 2.822.01 5.643.01 8.466 0 .059-.056.116-.087.175-.267-.197-.296-.484-.305-.78-.016-.586-.003-1.168-.012-1.75-.01-.484-.222-.76-.729-.766-1.053-.01-2.106-.014-3.162.002-.462.007-.696.243-.708.709-.011.424-.013.851-.006 1.278.015.846.145.984.973.996 1.009.016 2.018-.005 3.026.01.336.006.682-.012.916.308M56.582 65.836c-.173-.191-.102-.427-.102-.643.002-2.578.025-5.154.007-7.73-.003-.536.17-.691.691-.679 1.368.03 2.735.027 4.101 0 .507-.009.707.118.702.672-.018 2.599-.007 5.198.02 7.798.005.505-.117.718-.668.705-1.413-.032-2.825-.01-4.237-.012-.173 0-.362.044-.507-.104.232-.32.578-.302.916-.307 1.007-.016 2.016.005 3.026-.01.828-.013.96-.15.973-.997.007-.448.014-.896-.01-1.344-.024-.402-.24-.627-.638-.638-1.1-.026-2.198-.025-3.296 0-.439.011-.64.27-.655.693-.021.582-.002 1.164-.018 1.746-.009.318-.012.636-.305.85M56.58 87.76c-.203-.355-.096-.742-.098-1.114-.005-2.398.032-4.795 0-7.19-.009-.637.2-.797.803-.78 1.364.042 2.732.018 4.098.011.358-.003.592.047.592.502-.005 2.733.007 5.468.013 8.2 0 .15.032.325-.16.403-.281-.217-.308-.525-.315-.846-.01-.56-.007-1.121-.01-1.68-.003-.523-.238-.79-.774-.793-1.009-.005-2.017-.02-3.024.006-.623.016-.777.187-.804.825-.023.56.002 1.119-.016 1.68-.01.294-.025.589-.305.776" transform="translate(15 16)"/>
                    <path fill="#835A72" d="M56.58 87.76c.005-1.003.025-2.008.01-3.013-.005-.429.156-.602.588-.597 1.34.013 2.682.015 4.02-.001.458-.006.643.164.635.628-.018 1.005-.006 2.01-.004 3.015-1.75.049-3.501.107-5.249-.032" transform="translate(15 16)"/>
                    <path fill="#C38E89" d="M69.363 87.767c-.194-.184-.11-.421-.11-.634 0-2.58.023-5.157.001-7.734-.001-.564.172-.735.727-.72 1.39.033 2.78.019 4.17.004.408-.003.606.095.606.563-.01 2.689.003 5.379.007 8.07 0 .167.062.367-.152.474-.282-.216-.307-.525-.314-.846-.013-.584.002-1.166-.014-1.748-.015-.46-.238-.71-.705-.717-1.054-.018-2.107-.015-3.162-.002-.504.007-.722.278-.73.764-.011.582.003 1.166-.017 1.748-.008.296-.032.587-.307.778" transform="translate(15 16)"/>
                    <path fill="#835A72" d="M69.363 87.767c.006-1.003.022-2.01.01-3.015-.006-.425.147-.607.585-.602 1.34.013 2.681.018 4.02-.003.52-.01.647.23.638.694-.018.982-.004 1.966-.004 2.95-1.748.057-3.499.101-5.249-.024" transform="translate(15 16)"/>
                    <path fill="#C38E89" d="M69.363 65.841c-.192-.184-.11-.421-.11-.635 0-2.578.021-5.158.003-7.734-.003-.529.154-.702.686-.688 1.39.03 2.781.022 4.17.004.436-.005.647.087.645.587-.013 2.67 0 5.337.012 8.006.002.323-.023.573-.451.571-1.591-.016-3.184-.013-4.774-.021-.06 0-.118-.056-.175-.086.232-.314.575-.304.91-.309 1.029-.016 2.055.007 3.082-.01.762-.015.907-.16.926-.906.013-.466.013-.937-.007-1.405-.018-.432-.243-.66-.673-.67-1.071-.023-2.142-.017-3.215-.003-.466.007-.69.255-.704.714-.018.58 0 1.16-.014 1.74-.009.319-.021.633-.31.845" transform="translate(15 16)"/>
                    <path fill="#E0D1D1" d="M101.016 76.726h-7.514c.514-.722 1.198-1.127 1.746-1.668.525-.518 1.116-.971 1.662-1.466.236-.212.459-.278.71-.055 1.104.984 2.204 1.966 3.302 2.955.042.04.05.116.094.234" transform="translate(15 16)"/>
                    <path fill="#835A72" d="M92.9 65.843c-1.474-.007-2.95-.043-4.425-.004-.665.02-.863-.218-.822-.85.047-.735.02-1.474.007-2.212-.005-.398.166-.562.563-.56 1.366.009 2.728.012 4.092-.002.437-.005.589.177.582.604-.013 1.005.005 2.012.01 3.017l-.007.007zM56.582 65.836c.005-1.005.021-2.012.009-3.017-.006-.427.146-.61.584-.604 1.364.013 2.728.011 4.092.002.396-.002.567.16.562.56-.01.806-.023 1.611.005 2.416.02.518-.214.645-.683.64-1.522-.015-3.043.003-4.562.01l-.007-.007zM69.363 65.841c.006-1.005.022-2.014.01-3.019-.006-.423.142-.612.581-.607 1.366.015 2.73.011 4.096.002.396-.002.568.16.562.56-.01.827-.016 1.656.002 2.484.01.454-.204.571-.614.57-1.544-.008-3.089.007-4.631.014l-.006-.004z" transform="translate(15 16)"/>
                    <path fill="#C8928B" d="M123.596 41.295L30.772 41.295 45.07 47.542 137.727 47.545z" transform="translate(15 16)"/>
                    <path fill="#C8928B" d="M14.587 47.542L19.293 47.542 34.721 41.298 30.771 41.298z" transform="translate(15 16)"/>
                    <path fill="#413960" d="M17.422 65.032c0 .57-.463 1.032-1.032 1.032-.57 0-1.032-.462-1.032-1.032 0-.57.462-1.032 1.032-1.032.57 0 1.032.463 1.032 1.032M9.68 74.838c0 .567-.462 1.031-1.031 1.031-.57 0-1.032-.464-1.032-1.031 0-.57.462-1.032 1.032-1.032.57 0 1.032.462 1.032 1.032M23.614 74.838c0 .567-.462 1.031-1.031 1.031-.57 0-1.032-.464-1.032-1.031 0-.57.462-1.032 1.032-1.032.57 0 1.031.462 1.031 1.032" transform="translate(15 16)"/>
                </g>
            </g>
        </g>
    </g>
</svg>
