<svg xmlns="http://www.w3.org/2000/svg" width="202" height="165" viewBox="0 0 202 165">
    <defs>
        <filter id="ae4hv3tyza" width="127.4%" height="135.1%" x="-13.7%" y="-17.6%" filterUnits="objectBoundingBox">
            <feOffset dy="4" in="SourceAlpha" result="shadowOffsetOuter1"/>
            <feGaussianBlur in="shadowOffsetOuter1" result="shadowBlurOuter1" stdDeviation="4"/>
            <feColorMatrix in="shadowBlurOuter1" result="shadowMatrixOuter1" values="0 0 0 0 0 0 0 0 0 0 0 0 0 0 0 0 0 0 0.15 0"/>
            <feMerge>
                <feMergeNode in="shadowMatrixOuter1"/>
                <feMergeNode in="SourceGraphic"/>
            </feMerge>
        </filter>
    </defs>
    <g fill="none" fill-rule="evenodd">
        <g>
            <g>
                <g filter="url(#ae4hv3tyza)" transform="translate(1 -327) translate(16 344)">
                    <path fill="#FCE3E3" stroke="#FFF" stroke-width="3" d="M158 1.5c2.347 0 4.472.951 6.01 2.49 1.539 1.538 2.49 3.663 2.49 6.01h0v111c0 2.347-.951 4.472-2.49 6.01-1.538 1.539-3.663 2.49-6.01 2.49h0H10c-2.347 0-4.472-.951-6.01-2.49-1.539-1.538-2.49-3.663-2.49-6.01h0V10c0-2.347.951-4.472 2.49-6.01C5.528 2.45 7.653 1.5 10 1.5h0z"/>
                    <g>
                        <path fill="#EFAC9C" d="M23.322 48.778c-.72-.084-1.441-.1-2.152.026-.305.055-.382-.064-.448-.298-.467-1.669-.729-3.364-.666-5.106.073-2.093.683-4.052 1.447-5.977.574-1.446 1.209-2.876 1.582-4.395.147-.606.29-1.22.286-1.846-.018-2.586.568-5.06 1.376-7.49.907-2.732 2.026-5.374 3.515-7.848.04-.07.09-.135.127-.207.326-.636.795-1.015 1.56-.867.063.012.132-.016.199-.023.133-.116.296-.123.46-.123.972-.007 1.943-.007 2.916 0 .161 0 .325.001.455.126.53.006 1.056.023 1.584.02.22-.002.305.07.326.298.265 2.956 1.028 5.804 1.834 8.643.08.277.253.228.427.254-.112.224-.107.44-.034.684.422 1.4.856 2.799 1.27 4.202.056.19.155.344.306.47.085.177-.105.132-.162.195-.05.448.245.521.592.577 1.903.308 3.787.125 5.669-.194 3.163-.54 6.209-1.504 9.227-2.555.33-.114.405.034.522.233.258.172.31.467.427.719.284.612.564 1.227.808 1.858.067.178.116.356.11.548.337 1 .703 1.994.882 3.042.014.079.041.158.052.237.168 1.285.168 1.288-.994 1.866-2.98 1.481-6.057 2.72-9.296 3.513-1.767.434-3.56.737-5.387.783-.25.007-.449 0-.434.359.092 2.024-.114 4.01-.785 5.936-.015.05-.02.107-.03.159-.214 1.373-.993 2.283-2.267 2.79-.215.085-.437.148-.653.234-.775.22-1.563.317-2.37.343-2.93.099-5.818-.32-8.711-.685-.955-.122-1.905-.306-2.873-.303-.254.001-.475-.104-.697-.198" transform="translate(22 16)"/>
                        <path fill="#C38E89" d="M23.322 48.778c1.568.1 3.125.317 4.682.52 2.68.345 5.358.68 8.07.53.677-.036 1.337-.196 2-.332.162.203.115.442.09.666-.148 1.348-.331 2.692-.505 4.038-.342 2.64-.767 5.265-1.292 7.874-.345 1.73-.755 3.45-1.364 5.112-.48 1.31-1.22 2.482-2.01 3.62-.166.238-.224.521-.405.744-.144-.134-.224-.061-.319.073-1.27 1.793-2.65 3.504-4.045 5.2-1.128 1.371-2.294 2.712-3.457 4.056-1.465 1.691-2.935 3.378-4.418 5.052-.881.996-1.79 1.968-2.688 2.952-.376.41-.762.811-1.13 1.227-.165.187-.255.147-.404-.03-1.277-1.53-2.57-3.047-3.854-4.572-.804-.953-1.602-1.913-2.404-2.868-.06-.073-.138-.128-.208-.192-.45-.274-.693-.744-1.042-1.114-.488-.522-.904-1.11-1.39-1.635-.048-.048-.08-.108-.085-.18-.05-.256-.272-.398-.418-.585-.145-.183-.13-.282.021-.442 1.145-1.213 2.283-2.434 3.42-3.656 2.05-2.204 4.103-4.408 6.147-6.618 1.29-1.396 2.577-2.79 3.848-4.202.69-.765 1.338-1.567 2.018-2.34.348-.396.411-.879.457-1.361.17-1.752.327-3.506.425-5.263.1-1.744.281-3.484.329-5.23.009-.35.228-.714-.069-1.044" transform="translate(22 16)"/>
                        <path fill="#AF7F7D" d="M32.587 71.55c-.04-.6.431-.947.705-1.378.722-1.137 1.37-2.297 1.798-3.586.761-2.305 1.213-4.68 1.648-7.057.33-1.805.599-3.623.822-5.446.188-1.527.47-3.045.513-4.587.38-.172.777-.3 1.143-.506.946-.535 1.335-1.445 1.676-2.393.148 1.01.433 1.986.664 2.976.71 3.065 1.432 6.128 2.154 9.19.936 3.973 1.877 7.946 2.814 11.92.82 3.471 1.64 6.942 2.456 10.414.77 3.288 1.536 6.577 2.306 9.863.117.504.122.501-.398.586-.092.014-.185.043-.277.066-.38.21-.81.2-1.223.248-.577.065-1.159.105-1.734.187-.207.028-.394-.074-.598-.051-1.497.16-2.993.324-4.488.482-1.377.146-2.752.288-4.128.43-.552.059-1.105.115-1.656.182-.234.029-.342-.05-.384-.292-.286-1.643-.581-3.282-.875-4.923-.216-1.2-.435-2.402-.653-3.601-.4-2.202-.797-4.401-1.198-6.602-.354-1.945-.708-3.892-1.06-5.838-.017-.094-.017-.19-.027-.284" transform="translate(22 16)"/>
                        <path fill="#AFA8A8" d="M38.63 5.383c.047.214.125.424.085.651-.182.08-.243-.071-.315-.175-.485-.679-1.184-.968-1.971-1.105-.285-.05-.43.047-.543.338-.369.935-.759 1.862-1.268 2.732-.195.334-.448.62-.76.842-.51.362-1.005.297-1.408-.177-.202-.237-.373-.502-.57-.744-.387-.476-.821-.49-1.246-.047-.601.626-.478 1.518.27 1.954.103.061.222.1.318.182.219.188.22.357-.03.496-.121.067-.153.12-.132.246.026.148.008.299.014.448.023.613-.155 1.125-.73 1.434-1.538.904-3.098 1.053-4.69.137-.206-.117-.415-.209-.655-.13-.423.142-.857.104-1.29.076-.241-.076-.496-.098-.742-.152-1.422-.309-2.51-1.889-2.395-2.974.05-.481.22-.922.405-1.356.151-.35.107-.644-.176-.882-1.265-1.065-1.276-2.383-.714-3.77.533-1.315 1.364-2.388 2.817-2.778 1.107-.295 2.145-.046 3.133.493.502.276.948.63 1.419.948.823.555 1.414.545 2.186-.083.6-.49 1.185-.997 1.957-1.201 1.786-.47 3.32.06 4.687 1.2.95.79 1.705 1.74 2.184 2.893.09.155.116.333.16.504" transform="translate(22 16)"/>
                        <path fill="#EAC5C5" d="M30.344 12.458c.592-.516.722-1.18.617-1.918-.023-.178-.063-.309.204-.312.245-.003.18-.167.06-.261-.167-.131-.362-.23-.55-.335-.462-.26-.632-.66-.536-1.168.1-.516.338-.956.855-1.157.341-.132.649-.012.877.262.234.282.438.588.674.866.395.463.801.501 1.279.128.543-.42.875-.997 1.137-1.612.301-.71.714-1.374.886-2.135.053-.236.242-.198.391-.18.927.117 1.783.377 2.285 1.265.044.077.1.126.192.132.233 1.044.32 2.105.399 3.17.042.587-.063 1.162-.077 1.745-.016.675-.149 1.346-.359 1.985-.461 1.4-1.027 1.699-2.455 1.296-.717-.204-1.407-.49-2.049-.877-.091-.053-.189-.16-.29-.102-.127.07-.07.224-.057.335.041.39.1.776.152 1.164l-3.831-.003c.06-.712.274-1.394.414-2.09.049-.239-.008-.283-.218-.198" transform="translate(22 16)"/>
                        <path fill="#EFAC9C" d="M39.714 29.363c-.238.018-.323-.125-.384-.329-.36-1.21-.73-2.419-1.093-3.627-.096-.323-.135-.67-.285-.962-.149-.294-.038-.388.198-.48 1.334-.246 2.663-.499 3.95-.944 1.454-.503 2.842-1.143 4.151-1.943.315-.194.535-.28.691.135.475.78.867 1.597 1.118 2.477.007.024-.002.055 0 .08.293.705.3.711-.282 1.24-1.938 1.756-4.073 3.191-6.577 4.021-.385.128-.781.224-1.172.333-.105.041-.212.054-.315-.001" transform="translate(22 16)"/>
                        <path fill="#E0D1D1" d="M50.965 93.565c.134.088.2.062.262-.1.121-.311.336-.365.65-.222 1.29.583 2.595 1.144 3.889 1.722.616.275 1.216.581 1.836.85.628.27 1.31.313 1.984.36.398.026.754.136.956.502.255.465.089.926-.073 1.375-.042.123-.188.08-.29.08-4.339.002-8.675 0-13.013.005-.256 0-.358-.088-.375-.355-.029-.442-.126-.882-.144-1.325-.026-.685.19-1.33.435-1.956.062-.157.251-.206.421-.198.183.007.29-.049.274-.25.252.028.314.303.544.39.819.309 1.575.123 2.326-.213.122-.055.172-.165.193-.293.021-.13.002-.277.125-.372M6.984 83.949c.537 1.054.725 2.22 1.06 3.34.295.983.61 1.96.853 2.957.19.775.624 1.399 1.064 2.026.66.936.172 1.545-.712 1.913-.14.058-.218-.01-.306-.119-1.416-1.706-2.828-3.415-4.256-5.113-1.234-1.47-2.486-2.928-3.73-4.391-.47-.554-.436-.824-.022-1.408.5-.705 1.209-1.069 1.968-1.362.279-.108.614-.182.836.162.045.072.125.102.211.104.139.945.68 1.582 1.494 2.044.382.216.704.195 1.065-.003.143-.08.273-.242.475-.15" transform="translate(22 16)"/>
                        <path fill="#D8A8A4" d="M56.884 30.702c-.403-1.06-.877-2.091-1.344-3.125.158-.077.31-.166.473-.233.459-.19.71-.517.818-1.015.143-.65.418-1.256.82-1.798.183-.245.404-.427.717-.493.186-.038.26.032.26.198 0 .23-.02.461-.034.69-.008.108-.03.216-.032.322-.014.707.226.909.889.672.752-.27 1.423-.713 2.125-1.09.37-.201.748-.38 1.144-.524.341-.125.545-.003.643.338.213.749-.043 1.43-.367 2.067-.786 1.55-2.052 2.565-3.678 3.136-.741.259-1.49.49-2.237.726-.084.027-.145.065-.197.13M48.06 23.77l-1.117-2.557c1.067-.44 1.764-1.306 2.525-2.118.824-.88 1.726-1.687 2.742-2.352.12-.08.268-.134.412-.16.277-.05.428.075.364.364-.046.208-.111.414-.22.607-.372.649-.724 1.305-.987 2.005-.283.755-.078 1.06.708 1.065.239.002.485-.04.705.128.226.174.258.334.027.518-.443.353-.964.555-1.489.733-.793.27-1.595.526-2.403.746-.583.162-.897.618-1.267 1.022" transform="translate(22 16)"/>
                        <path fill="#EAC5C5" d="M6.984 83.949c-.014.004-.027.006-.038.012-.371.178-.738.58-1.14.41-.693-.287-1.375-.674-1.682-1.435-.111-.274-.358-.54-.174-.878.594-.484 1.185-.971 1.784-1.448.465-.371.94-.727 1.41-1.09.514.386.831.947 1.262 1.41.446.481.838 1.01 1.256 1.52-.579.176-1.031.58-1.556.852-.384.198-.749.429-1.122.647" transform="translate(22 16)"/>
                        <path fill="#D8A8A4" d="M50.965 93.565c-.012.67-.02.654-.668.919-.582.237-1.162.306-1.77.138-.328-.09-.632-.202-.75-.569-.193-.642-.385-1.283-.586-1.922-.015-.057-.088-.092-.135-.136.53-.067 1.06-.141 1.592-.198.653-.07 1.31-.125 1.964-.185-.12.373.105.701.146 1.053.038.303.135.6.207.9" transform="translate(22 16)"/>
                        <path fill="#5C5C79" d="M22.967 12.389c.263-.026.517-.004.743.153-.265.034-.507-.048-.743-.153" transform="translate(22 16)"/>
                        <path fill="#BFBECA" d="M38.63 5.383c-.085-.159-.172-.315-.16-.504.16.134.197.307.16.504" transform="translate(22 16)"/>
                        <path fill="#A1A4D0" d="M39.714 29.363l.315.001c-.146.118-.318.15-.498.153.017-.105.135-.086.183-.154" transform="translate(22 16)"/>
                        <path fill="#EDECC0" d="M24.693 23.84s2.64 3.961 14.08 3.08c0 0 .88 1.321.88 2.64 0 1.121-12.333 1.287-15.84-2.72l.88-3zM22.053 36.16s3.767 6.602 19.8 4.841c0 0-.195 2.39-.44 3.518-.32 1.463-14.596 1.533-20.067-3.343-.39-.348-.764-.995-.613-1.495l1.32-3.52z" transform="translate(22 16)"/>
                        <path fill="#835A72" d="M108.589 52.032c-.72.044-1.438.096-2.155.183-.745.09-1.492.169-2.238.257-.863.1-1.726.22-2.59.307-.58.06-1.165.102-1.74.166-1.203.133-2.401.098-3.6.089-.722-.005-1.434-.096-2.116-.348-.137-.051-.288-.063-.433-.095.022.23.245.214.382.242.334.065.433.268.497.554.193.86.417 1.714.627 2.57.386 1.575.822 3.14 1.256 4.703.476 1.72.987 3.43 1.514 5.137.25.807.504 1.613.769 2.417.05.154.052.318.097.472.122.058.236.122.23.279.31.904.612 1.81.932 2.71.487 1.375.972 2.75 1.484 4.115.52 1.391 1.064 2.778 1.615 4.157.563 1.408 1.132 2.813 1.729 4.206.725 1.69 1.48 3.365 2.224 5.047.283.641.577 1.279.872 1.915.043.09.085.192.18.253.432.04.864.085 1.295.09 1.251.016 2.503.015 3.755.001.411-.004.825-.038 1.23-.108.1-.195-.036-.373-.082-.537-.152-.536-.283-1.076-.423-1.612-.142-.545-.282-1.095-.41-1.644-.135-.577-.287-1.15-.424-1.728-.1-.418-.212-.837-.293-1.263-.074-.396-.176-.79-.264-1.184-.151-.67-.305-1.34-.45-2.011-.104-.487-.199-.977-.3-1.466-.101-.489-.217-.974-.296-1.466-.076-.473-.18-.944-.268-1.416-.07-.379-.123-.764-.209-1.138-.127-.572-.18-1.154-.309-1.725-.062-.277-.097-.557-.143-.835-.118-.745-.254-1.488-.342-2.235-.12-1.012-.29-2.017-.408-3.03-.093-.803-.209-1.608-.295-2.415-.064-.589-.113-1.184-.183-1.773-.08-.674-.123-1.353-.183-2.03-.064-.722-.123-1.45-.172-2.174-.065-.99-.083-1.982-.172-2.97-.027-.292-.056-.585-.048-.877.028-1.202-.11-2.4-.093-3.601 0-.067.001-.134-.049-.19" transform="translate(22 16)"/>
                        <path fill="#65416B" d="M98.922 68.746c.014-.475-.202-.898-.333-1.338-.23-.775-.493-1.54-.712-2.318-.235-.834-.515-1.658-.762-2.49-.23-.786-.438-1.574-.659-2.363-.185-.66-.386-1.32-.563-1.985-.219-.819-.42-1.642-.625-2.463l-.548-2.195c-.011-.045-.034-.09-.043-.135-.116-.624-.116-.627-.738-.755-.09-.018-.18-.018-.221-.113-1.39-.395-2.136-1.357-2.539-2.62-.125-.387-.262-.771-.367-1.164-.04-.147-.102-.085-.176-.06-.384 1.573-.722 3.156-1.026 4.745-.293 1.527-.55 3.059-.777 4.596-.2 1.367-.39 2.738-.523 4.114-.134 1.369-.297 2.733-.425 4.101-.1 1.066-.184 2.133-.248 3.201-.163 2.725-.318 5.451-.376 8.179-.072 3.364-.15 6.728-.09 10.092.018 1.024.038 2.047.058 3.07.003.102-.026.21.06.297.313.13.65.076.966.082 1.35.027 2.702.018 4.052.008.05-.002.099-.008.148-.017.162-.093.345-.073.522-.069.178.005.3-.077.328-.23.1-.528.252-1.042.384-1.561.139-.536.279-1.073.414-1.61.104-.41.209-.821.308-1.23.082-.346.182-.687.267-1.034.107-.437.212-.877.332-1.31.137-.497.262-.998.39-1.497.11-.428.216-.855.326-1.283.09-.355.184-.708.275-1.063.108-.418.216-.837.317-1.258.087-.354.19-.704.278-1.057.145-.584.294-1.167.443-1.75.1-.38.195-.763.294-1.145.1-.39.207-.778.295-1.17.086-.374.197-.742.282-1.115.097-.43.209-.857.321-1.281.104-.39.207-.781.299-1.173.129-.544.32-1.076.392-1.633" transform="translate(22 16)"/>
                        <path fill="#EAC5C5" d="M91.688 8.924c-.337 1.3-.349 2.638-.285 3.968.06 1.218.192 2.43.839 3.527.414.698.811.813 1.627.717 1.125-.134 2.125-.597 3.099-1.12.256-.14.335-.107.312.164-.037.392-.107.784-.161 1.175-.026.187-.159.198-.32.202-.55.016-1.1-.047-1.65.032.757.043 1.51.01 2.263.01 1.579 0 3.156.006 4.733.009.111 0 .225-.013.335-.019-.276-.079-.556-.02-.834-.033-.17-.008-.26-.058-.296-.233-.166-.784-.35-1.565-.522-2.347-.029-.134-.06-.273.111-.367.159-.087.174-.238.139-.394-.126.325-.47.468-.836.356-.093-.03-.12-.087-.13-.165-.123-.873-.263-1.744-.352-2.62-.026-.232.1-.48.149-.72.062-.31.082-.617-.02-.923 0 0 .04-3.901-1.28-3.901s-4.84-.88-5.28-.44c-.44.44-1.083.963-1.641 3.122" transform="translate(22 16)"/>
                        <path fill="#E0D1D1" d="M87.279 91.194c.164.134.359.051.538.06.16.008.23.043.235.21.014.634-.192 1.252-.133 1.89.014.141-.112.185-.254.143-.158-.05-.29.004-.418.088-1.069.715-2.235 1.256-3.445 1.706-.814.306-1.649.559-2.502.764-.714.175-1.431.332-2.16.439-.352.052-.547.36-.445.699.069.226.168.445.207.677.047.259.177.332.446.332 3.022-.008 6.046-.005 9.068-.005 1.173 0 2.345.003 3.52-.003.18-.001.4.084.53-.096.197-.275.49-.53.41-.909-.075-.339-.03-.678-.055-1.016-.052-.658-.15-1.312-.122-1.975.006-.18-.078-.275-.304-.225-.128.029-.34.107-.35-.157-.553.26-1.14.175-1.716.136-.644-.046-1.271-.19-1.9-.334-.274-.062-.363-.204-.357-.464.006-.332.054-.659.097-.985.034-.255.03-.51.02-.764-.008-.155-.073-.248-.259-.233-.218.019-.435-.018-.651.022M109.655 92.91c0 .036-.008.077.001.112.111.453.115.458-.3.715-1.07.664-2.204 1.207-3.403 1.633-.66.236-1.33.463-2.01.635-.792.203-1.596.393-2.418.49-.387.046-.568.338-.454.696.092.288.181.575.267.866.033.113.103.15.219.14.049-.003.099 0 .148 0h12.736c.37 0 .888-.52.81-.868-.083-.365-.054-.732-.089-1.095-.062-.676-.085-1.355-.134-2.031-.014-.202-.053-.318-.298-.225-.28.105-.201-.229-.36-.273-.068.18-.199.247-.401.27-.894.106-1.758-.06-2.625-.227-.339-.067-.672-.166-1.007-.253-.226-.06-.399-.149-.475-.377-.03-.09-.063-.209-.207-.209" transform="translate(22 16)"/>
                        <path fill="#D8A8A4" d="M87.279 91.194c.197 0 .397.009.595 0 .184-.01.23.064.239.233.029.587-.116 1.162-.137 1.747-.01.306.073.452.402.52.74.154 1.478.317 2.242.366.348.021.688-.02 1.033-.01.19.005.321-.063.392-.234v.002c.123-.195.059-.423.118-.627.107-.571.218-1.142.317-1.713.033-.2.128-.301.353-.281.114.009.237.033.346-.034-.218-.084-.439-.052-.661-.02l-4.903-.02c-.11 0-.216.013-.324.019-.014.015-.017.032-.012.052M109.655 92.91c.06.115.138.224.173.348.041.137.134.211.258.25 1.108.32 2.231.556 3.394.587.224.006.452-.032.677-.055.223-.021.31-.126.214-.336-.214-.669-.411-1.343-.643-2.008-.093-.262.017-.27.233-.276.17-.004.38.1.515-.097-.014-.037-.032-.04-.054-.005-.36.07-.73.043-1.094.045-1.637.004-3.271-.007-4.91-.008-.097-.002-.194.008-.293.012.157.126.341.055.508.053.262 0 .408.073.5.334.14.396.344.772.522 1.155" transform="translate(22 16)"/>
                        <path fill="#E4E3E3" d="M93.065 92.994c-.08.211-.09.432-.124.651.213-.187.1-.43.124-.651" transform="translate(22 16)"/>
                        <path fill="#C38E89" d="M111.06 51.865c.572-1.706.838-3.452.8-5.245-.04-1.927-.557-3.748-1.262-5.535-.604-1.532-1.33-3.021-1.808-4.6-.257-.85-.457-1.712-.463-2.601-.012-1.466-.2-2.912-.543-4.335-.399-1.638-.92-3.244-1.553-4.815-.864-2.141-1.836-4.239-3.084-6.209-.2-.315-.417-.622-.674-.9-.087-.094-.174-.18-.305-.217-2.333-.154-4.665-.044-6.997 0-.15.026-.17.125-.181.248-.143 1.67-.477 3.308-.88 4.938-.323 1.305-.712 2.594-1.08 3.888-.052.191-.167.236-.354.217-.869-.083-1.721-.252-2.57-.447-1.602-.367-3.123-.95-4.611-1.615-.046.157.09.193.187.242 1.145.557 2.338.997 3.575 1.333.632.174 1.268.326 1.91.443.389.072.774.177 1.176.181.39.003.46.084.348.424-.429 1.312-.803 2.64-1.272 3.942-.067.186-.085.382-.157.566-.119.303-.233.36-.568.292-1.144-.232-2.231-.62-3.286-1.094-.137-.062-.271-.192-.444-.076.46.347 1.02.51 1.55.714.766.295 1.555.54 2.378.654.128.019.247.048.22.201-.026.166-.025.347-.26.411-.42.116-.85.165-1.275.198-.892.072-1.787.063-2.68-.009-1.345-.11-2.672-.317-3.989-.581-1.103-.226-2.196-.49-3.281-.784-1.33-.363-2.654-.754-3.964-1.18-.315-.104-.632-.201-.942-.312-.445-.158-.443-.163-.673.2-.317.311-.437.724-.62 1.101-.257.53-.493 1.067-.71 1.614-.06.141-.101.284-.102.438-.106.492-.355.936-.498 1.416-.286.97-.574 1.936-.583 2.956-.002.225.073.355.284.457 2.095 1.015 4.23 1.946 6.44 2.714 1.664.578 3.36 1.062 5.097 1.421 1.668.347 3.349.585 5.054.637.301.009.385.1.373.379-.06 1.309.01 2.612.258 3.9.061.314.154.62.035.937.108.082.14.204.172.323.143.539.38 1.044.565 1.566.446 1.257 1.382 1.99 2.671 2.375 2.127.709 4.314.522 6.497.39 2.026-.124 4.03-.433 6.042-.655 1.029-.113 2.053-.244 3.088-.308.15-.01.298-.038.443-.08.105-.086.228-.1.36-.092.63.03 1.266-.064 1.893.058.09.017.198.021.252-.084" transform="translate(22 16)"/>
                        <path fill="#AF7F7D" d="M86.963 30.89c.481.193.965.381 1.443.58.75.31 1.538.503 2.328.693.344.086.511-.02.628-.39.4-1.27.793-2.546 1.19-3.818.088-.273.16-.553.269-.82.112-.28-.055-.378-.282-.377-.629.008-1.228-.155-1.83-.275-.724-.14-1.437-.349-2.144-.567-1.005-.309-1.972-.695-2.917-1.14-.071-.032-.135-.059-.154-.138-.602-.332-1.231-.618-1.808-.993-.309-.2-.313.102-.423.233-.148.084-.201.236-.263.373-.303.65-.61 1.299-.91 1.953-.046.105-.068.212-.072.323-.032.084-.061.169-.096.254-.195.478-.195.478.195.83 1.41 1.266 2.96 2.347 4.668 3.222.055.026.119.038.178.056" transform="translate(22 16)"/>
                        <path fill="#D8A8A4" d="M72.616 33.555c.446-1.064.925-2.115 1.43-3.153-.158-.083-.308-.188-.477-.246-.522-.18-.772-.531-.903-1.041-.169-.664-.457-1.294-.887-1.854-.154-.203-.358-.334-.58-.427-.312-.13-.484-.01-.455.312.028.358.038.717.048 1.077.015.519-.263.74-.843.522-.795-.302-1.527-.73-2.28-1.111-.385-.195-.778-.383-1.178-.545-.408-.165-.722.015-.807.44-.131.666.064 1.286.356 1.872.719 1.437 1.894 2.434 3.407 3.082.756.324 1.55.551 2.348.766.277.073.599.08.82.306M82.018 26.527l1.245-2.649c-.582-.204-1.148-.434-1.574-.89-1.22-1.306-2.507-2.541-4.006-3.56-.113-.078-.227-.144-.378-.16-.18-.019-.365-.115-.505.065-.128.164-.055.34.027.496.317.612.644 1.22.971 1.83.146.274.252.564.33.861.154.562-.054.818-.663.827-.193.003-.388.01-.581.004-.14-.004-.247.048-.35.13-.246.196-.255.36.001.55.352.255.767.397 1.17.556.854.337 1.733.632 2.63.816.763.157 1.219.617 1.683 1.124" transform="translate(22 16)"/>
                        <path fill="#181A44" d="M103.627 9.94c.897.767 1.684 1.66 2.539 2.475.845.806 1.75 1.489 2.927 1.632.93.116 1.73-.175 2.353-.895 1.109-1.279 1.492-2.798 1.081-4.492-.298-1.225-1.301-2.084-2.528-2.134-2.271-.093-4.516.043-6.622 1.105-.158.08-.3.163-.397-.114-.615-1.775-1.907-2.573-3.59-2.824-.818-.121-1.632-.239-2.459-.228-.24.003-.34-.055-.388-.329-.222-1.26-.976-2.035-2.078-2.183-.973-.129-1.94.434-2.382 1.39-.47 1.014-.26 2.148.56 3.022l.06.067c.225.403.608.534.998.62.846.19 1.682.453 2.554.482.218.006.295.118.276.35-.044.574-.03 1.149-.014 1.724.018.55.17.641.626.422.682-.332 1.523.196 1.653 1.041.099.643-.181 1.544-.82 1.783-.292.123-.39.328-.237.639.352.679.786 1.285 1.378 1.752.428.34.89.502 1.423.34.828-.151 1.407-.684 1.853-1.398.564-.896.853-1.9.981-2.96.041-.338.072-.678.081-1.017.003-.12-.041-.294.172-.27" transform="translate(22 16)"/>
                    </g>
                </g>
            </g>
        </g>
    </g>
</svg>
